<svg xmlns="http://www.w3.org/2000/svg" version="1.1" xmlns:xlink="http://www.w3.org/1999/xlink" xmlns:svgjs="http://svgjs.dev/svgjs" width="128" height="128" viewBox="0 0 128 128"><g transform="matrix(0.8046875,0,0,0.8046875,12.756395246688385,12.760752631578946)"><svg viewBox="0 0 95 95" data-background-color="#ffffff" preserveAspectRatio="xMidYMid meet" height="128" width="128" xmlns="http://www.w3.org/2000/svg" xmlns:xlink="http://www.w3.org/1999/xlink"><g id="tight-bounds" transform="matrix(1,0,0,1,-0.23648105277084142,-0.24049999999999727)"><svg viewBox="0 0 95.47296210554167 95.48100000000001" height="95.48100000000001" width="95.47296210554167"><g><svg viewBox="0 0 95.47296210554167 95.48100000000001" height="95.48100000000001" width="95.47296210554167"><g><svg viewBox="0 0 95.47296210554167 95.48100000000001" height="95.48100000000001" width="95.47296210554167"><g><svg viewBox="0 0 95.47296210554167 95.48100000000001" height="95.48100000000001" width="95.47296210554167"><g><svg viewBox="0 0 95.47296210554167 95.48100000000001" height="95.48100000000001" width="95.47296210554167"><g><svg viewBox="0 0 95.47296210554167 95.48100000000001" height="95.48100000000001" width="95.47296210554167"><g><svg xmlns="http://www.w3.org/2000/svg" xmlns:xlink="http://www.w3.org/1999/xlink" version="1.1" x="0" y="0" viewBox="8.365 7.686999999999999 83.145 83.15199999999999" enable-background="new 0 0 100 100" xml:space="preserve" height="95.48100000000001" width="95.47296210554167" class="icon-icon-0" data-fill-palette-color="accent" id="icon-0"><g fill="#be2729" data-fill-palette-color="accent"><path d="M9.517 39.879c0 0 26.09 26.095 26.872 26.881 0 1.091 0 22.693 0 22.693 0 0.762 0.618 1.386 1.384 1.386h29.711c0.756 0 1.383-0.624 1.383-1.386 0 0 0-46.244 0-48.854 2.227 0 15.533 0 17.767 0 0 2.323 0 20.381 0 22.713-2.206 0-11.508 0-11.508 0-0.766 0-1.388 0.619-1.388 1.382v2.111c0 0.762 0.622 1.381 1.388 1.381h14.999c0.765 0 1.385-0.619 1.385-1.381V37.101c0-0.762-0.62-1.381-1.385-1.381 0 0-21.603 0-22.695 0C66.65 34.935 40.55 8.843 40.55 8.843l-0.742-0.746c-0.256-0.263-0.599-0.41-0.977-0.41-0.363 0-0.724 0.147-0.97 0.404L8.771 37.176c-0.269 0.273-0.406 0.621-0.406 0.982 0 0.353 0.138 0.701 0.406 0.971L9.517 39.879zM41.271 16.453c3.415 3.421 15.846 15.848 19.268 19.268-4.619 0-17.175 0-19.268 0C41.271 35.72 41.271 21.301 41.271 16.453zM41.271 40.599c2.322 0 20.381 0 22.714 0 0 2.53 0 42.83 0 45.36-2.333 0-22.714 0-22.714 0S41.271 43.198 41.271 40.599zM36.389 16.453c0 4.615 0 17.181 0 19.262-2.088 0-14.647 0-19.261 0C17.128 35.714 32.649 20.195 36.389 16.453zM36.389 40.599c0 2.089 0 14.649 0 19.263 0 0-15.515-15.521-19.261-19.263C21.741 40.599 34.301 40.599 36.389 40.599z" fill="#000000" data-fill-palette-color="accent"></path></g></svg></g></svg></g></svg></g></svg></g></svg></g></svg></g><defs></defs></svg><rect width="95.47296210554167" height="95.48100000000001" fill="none" stroke="none" visibility="hidden"></rect></g></svg></g></svg>